<svg width="98" height="90" viewBox="0 0 98 90" fill="none" xmlns="http://www.w3.org/2000/svg">
<path fill-rule="evenodd" clip-rule="evenodd" d="M41.1043 4.70023C44.6223 -1.15725 53.3777 -1.15723 56.8957 4.70024L67.6693 22.6384C68.6624 24.2918 70.3788 25.4201 72.3353 25.7056L90.2256 28.3162C98.0241 29.4542 100.759 38.967 94.6862 43.8283L81.651 54.262C79.8214 55.7265 78.9611 58.0365 79.4055 60.2915L83.0569 78.8173C84.4872 86.0742 76.602 91.7126 69.8363 88.2708L52.0379 79.2166C50.1364 78.2493 47.8636 78.2493 45.9621 79.2166L28.1637 88.2708C21.398 91.7126 13.5128 86.0742 14.9431 78.8173L18.5945 60.2915C19.0389 58.0365 18.1786 55.7265 16.349 54.262L3.31382 43.8283C-2.75951 38.967 -0.0240316 29.4542 7.77442 28.3162L25.6647 25.7056C27.6212 25.4201 29.3376 24.2918 30.3307 22.6383L41.1043 4.70023ZM50.1279 8.49427C49.6254 7.65748 48.3746 7.65749 47.872 8.49427L37.0984 26.4324C34.9137 30.07 31.1375 32.5523 26.8333 33.1804L8.94297 35.791C7.82889 35.9536 7.43812 37.3125 8.30573 38.007L21.3409 48.4408C25.366 51.6626 27.2587 56.7447 26.2809 61.7056L22.6295 80.2314C22.4252 81.2681 23.5516 82.0736 24.5182 81.5819L42.3166 72.5277C46.5 70.3995 51.5 70.3995 55.6834 72.5277L73.4818 81.5819C74.4484 82.0736 75.5748 81.2681 75.3705 80.2314L71.7191 61.7056C70.7413 56.7447 72.634 51.6626 76.6591 48.4408L89.6943 38.007C90.5619 37.3125 90.1711 35.9536 89.057 35.791L71.1667 33.1804C66.8625 32.5523 63.0863 30.07 60.9016 26.4324L50.1279 8.49427Z" fill="black"/>
</svg>
