<svg width="104" height="86" viewBox="0 0 104 86" fill="none" xmlns="http://www.w3.org/2000/svg">
<path fill-rule="evenodd" clip-rule="evenodd" d="M25.9936 17.1349V11.4125C25.9936 7.17495 29.4634 3.57505 34.1536 2.94645L40.8327 2.05131C48.2362 1.05907 55.7639 1.05907 63.1674 2.0513L69.8464 2.94645C74.5367 3.57505 78.0065 7.17496 78.0065 11.4125V17.1349L87.3908 17.8117C94.5762 18.3299 100.437 23.1638 101.59 29.5219C104.137 43.5739 104.137 57.9006 101.59 71.9527C100.437 78.3107 94.5762 83.1446 87.3908 83.6628L77.142 84.4019C60.4079 85.6088 43.5921 85.6088 26.858 84.4019L16.6092 83.6628C9.42381 83.1446 3.56258 78.3107 2.41019 71.9527C-0.13673 57.9006 -0.13673 43.5739 2.41019 29.5219C3.56258 23.1638 9.42382 18.3299 16.6092 17.8117L25.9936 17.1349ZM42.051 9.30792C48.6468 8.42393 55.3533 8.42393 61.9491 9.30792L68.6282 10.2031C69.2982 10.2929 69.7939 10.8071 69.7939 11.4125V16.6204C57.941 16.0164 46.0591 16.0164 34.2062 16.6204V11.4125C34.2062 10.8071 34.7019 10.2929 35.3719 10.2031L42.051 9.30792ZM27.5187 24.3866C43.8131 23.2114 60.1869 23.2114 76.4813 24.3866L86.7301 25.1257C90.1473 25.3722 92.9348 27.6711 93.4829 30.6949C93.8242 32.5779 94.1171 34.4661 94.3615 36.3581C67.6565 48.1074 36.3435 48.1074 9.63847 36.3581C9.88294 34.4662 10.1758 32.5779 10.5171 30.6949C11.0652 27.6711 13.8527 25.3722 17.2699 25.1257L27.5187 24.3866ZM8.90543 44.1658C36.2773 55.2886 67.7227 55.2886 95.0946 44.1658C95.6165 53.0502 95.0792 61.972 93.4829 70.7796C92.9348 73.8034 90.1473 76.1023 86.7301 76.3488L76.4812 77.0879C60.1869 78.2631 43.8131 78.2631 27.5187 77.0879L17.2699 76.3488C13.8527 76.1023 11.0652 73.8034 10.5171 70.7796C8.92076 61.972 8.38353 53.0503 8.90543 44.1658Z" fill="black" stroke="#545454"/>
</svg>
