<svg width="70" height="107" viewBox="0 0 70 107" fill="none" xmlns="http://www.w3.org/2000/svg">
<path fill-rule="evenodd" clip-rule="evenodd" d="M17.1558 1.03557C27.7057 0.0643154 38.3578 0.0643144 48.9078 1.03557L59.7008 2.02921C61.2467 2.17153 62.6265 2.87966 63.444 3.95038C64.2616 5.0211 64.4267 6.33603 63.8918 7.5178L48.991 40.4412H64.9259C66.5905 40.4412 68.1492 41.1016 69.097 42.2083C70.0448 43.3151 70.2613 44.7275 69.6762 45.9879L68.3878 48.7635C59.4491 68.0199 46.8117 86.0155 30.9413 102.087L28.2981 104.764C26.9528 106.126 24.6901 106.653 22.6557 106.076C20.6213 105.5 19.2593 103.946 19.2593 102.203L19.2593 63.0638H6.93658C4.30807 63.0638 2.11473 61.4402 1.88237 59.3225L1.05276 51.7612C-0.350921 38.9677 -0.35092 26.0989 1.05276 13.3054L1.88237 5.74418C2.09543 3.80233 3.96798 2.24968 6.36275 2.02921L17.1558 1.03557ZM47.7601 9.1911C37.9728 8.29005 28.0907 8.29005 18.3034 9.1911L11.6247 9.80596L11.1612 14.031C9.81046 26.3417 9.81045 38.7249 11.1612 51.0356L11.5803 54.8556H24.3334C27.1357 54.8556 29.4074 56.6931 29.4074 58.9597L29.4074 90.1767C40.9229 77.3594 50.388 63.4063 57.5698 48.6494H41.7302C40.073 48.6494 38.5203 47.9949 37.571 46.8962C36.6218 45.7975 36.3957 44.3932 36.9653 43.1345L52.1451 9.59479L47.7601 9.1911Z" fill="black"/>
</svg>
