<svg width="22" height="22" viewBox="0 0 22 22" fill="none" xmlns="http://www.w3.org/2000/svg">
<path d="M13.641 21.024C12.4804 21.0201 11.5415 20.0785 11.541 18.918V16.811H13.641C14.8046 16.811 15.748 17.7543 15.748 18.918C15.748 20.0817 14.8046 21.025 13.641 21.025V21.024ZM8.35897 21.024C7.19843 21.0201 6.25952 20.0785 6.25897 18.918V13.644C6.25897 12.8925 6.6599 12.1981 7.31072 11.8223C7.96155 11.4466 8.7634 11.4466 9.41422 11.8223C10.065 12.1981 10.466 12.8925 10.466 13.644V18.918C10.4654 20.0813 9.52225 21.024 8.35897 21.024ZM18.909 15.751H13.641C12.4776 15.751 11.5345 14.8079 11.5345 13.6445C11.5345 12.4811 12.4776 11.538 13.641 11.538H18.909C20.0724 11.538 21.0155 12.4811 21.0155 13.6445C21.0155 14.8079 20.0724 15.751 18.909 15.751ZM3.09197 15.751C1.92859 15.751 0.985474 14.8079 0.985474 13.6445C0.985474 12.4811 1.92859 11.538 3.09197 11.538H5.19197V13.644C5.19197 14.8069 4.24986 15.7499 3.08697 15.751H3.09197ZM18.909 10.462H16.809V8.356C16.8123 7.19699 17.7539 6.2598 18.913 6.262C20.072 6.26421 21.0101 7.20498 21.009 8.36399C21.0079 9.52301 20.068 10.462 18.909 10.462ZM13.641 10.462C12.4804 10.4581 11.5415 9.51654 11.541 8.356V3.082C11.541 2.33049 11.9419 1.63607 12.5927 1.26031C13.2435 0.884559 14.0454 0.884559 14.6962 1.26031C15.347 1.63607 15.748 2.33049 15.748 3.082V8.356C15.7474 9.51927 14.8042 10.462 13.641 10.462ZM8.35897 10.462H3.09197C1.92859 10.462 0.985474 9.51889 0.985474 8.3555C0.985474 7.19211 1.92859 6.249 3.09197 6.249H8.35897C9.52236 6.249 10.4655 7.19211 10.4655 8.3555C10.4655 9.51889 9.52236 10.462 8.35897 10.462ZM10.459 5.18901H8.35897C7.50673 5.19143 6.73703 4.67997 6.40911 3.89333C6.08119 3.10669 6.2597 2.19995 6.86133 1.59632C7.46296 0.992684 8.36909 0.811155 9.15682 1.13645C9.94455 1.46175 10.4586 2.22975 10.459 3.082V5.188V5.18901Z" fill="white"/>
</svg>
