<svg width="60" height="60" viewBox="0 0 60 60" fill="none" xmlns="http://www.w3.org/2000/svg">
<path d="M5.005 30.0051C5.00791 42.3036 13.951 52.7752 26.0975 54.7026V37.2301H19.755V30.0051H26.105V24.5051C25.8211 21.899 26.7113 19.3016 28.5341 17.4174C30.3569 15.5333 32.9234 14.5576 35.5375 14.7551C37.4138 14.7854 39.2855 14.9525 41.1375 15.2551V21.4026H37.9775C36.8896 21.2601 35.7959 21.6194 35.0044 22.3793C34.213 23.1391 33.8094 24.2173 33.9075 25.3101V30.0051H40.835L39.7275 37.2326H33.9075V54.7026C47.0437 52.6266 56.2552 40.6296 54.8688 27.4028C53.4823 14.176 41.9832 4.34993 28.7021 5.04306C15.4209 5.73618 5.00712 16.7059 5.005 30.0051Z" fill="#5D5FEF"/>
</svg>
