<svg width="60" height="60" viewBox="0 0 60 60" fill="none" xmlns="http://www.w3.org/2000/svg">
<path d="M32.5 52.5H22.5V22.5H32.5V27.5C34.6316 24.7881 37.8641 23.1714 41.3125 23.0925C47.514 23.1269 52.518 28.1734 52.5 34.375V52.5H42.5V35.625C42.1001 32.8316 39.7044 30.7589 36.8825 30.765C35.6482 30.804 34.4831 31.3444 33.6561 32.2616C32.8291 33.1787 32.4116 34.3932 32.5 35.625V52.5ZM17.5 52.5H7.5V22.5H17.5V52.5ZM12.5 17.5C9.73858 17.5 7.5 15.2614 7.5 12.5C7.5 9.73858 9.73858 7.5 12.5 7.5C15.2614 7.5 17.5 9.73858 17.5 12.5C17.5 13.8261 16.9732 15.0979 16.0355 16.0355C15.0979 16.9732 13.8261 17.5 12.5 17.5Z" fill="#5D5FEF"/>
</svg>
