<svg width="60" height="58" viewBox="0 0 60 58" fill="none" xmlns="http://www.w3.org/2000/svg">
<g clip-path="url(#clip0)">
<path d="M42.8857 50.0998C41.6961 50.9215 41.3978 52.5517 42.2199 53.7407C43.0419 54.9298 44.6728 55.228 45.8631 54.4062C47.0526 53.5846 47.3502 51.9543 46.5281 50.7653C45.7059 49.5754 44.0751 49.2779 42.8857 50.0998ZM27.6012 54.6719C26.8672 55.1789 26.6831 56.1848 27.1902 56.9184C27.6973 57.6522 28.7035 57.8362 29.4375 57.3294C30.1715 56.8217 30.3557 55.8159 29.8486 55.0821C29.3415 54.3484 28.3353 54.1652 27.6012 54.6719ZM9.03393 47.167C9.16889 47.7946 9.78781 48.1936 10.4148 48.0579C11.0425 47.9222 11.4416 47.3043 11.3059 46.6769C11.1702 46.0493 10.552 45.6512 9.92433 45.786C9.29747 45.9216 8.89815 46.5396 9.03393 47.167ZM4.56145 29.1911C5.34228 28.0528 5.05271 26.4972 3.91391 25.7167C2.7752 24.936 1.21908 25.2256 0.43825 26.3639C-0.34258 27.5023 -0.0530109 29.0579 1.08579 29.8384C2.22459 30.6191 3.78062 30.3294 4.56145 29.1911ZM13.1065 13.0739C13.969 12.4781 14.1849 11.2962 13.5889 10.4339C12.9929 9.57161 11.8105 9.35589 10.948 9.95164C10.0862 10.5474 9.86959 11.7293 10.4655 12.5915C11.0614 13.4531 12.2438 13.6696 13.1065 13.0739ZM18.7644 1.43367C18.6096 0.716536 17.9026 0.260443 17.1852 0.415151C16.4671 0.569859 16.0108 1.27657 16.1664 1.99444C16.3211 2.71158 17.0281 3.16767 17.7455 3.01306C18.4635 2.85835 18.9199 2.15072 18.7644 1.43367ZM35.7049 3.18918C34.9994 2.01512 33.4759 1.63435 32.3022 2.33958C31.1278 3.04398 30.7476 4.56706 31.4523 5.74103C32.1579 6.915 33.6814 7.29503 34.855 6.59063C36.0294 5.8854 36.4095 4.36241 35.7049 3.18918ZM47.8754 20.9144C48.0634 18.4545 47.4492 15.9192 45.9368 13.7315C42.9887 9.46693 37.6062 7.90259 32.9497 9.59072C28.7892 6.92616 23.286 6.81429 18.9668 9.79776C16.7806 11.3081 15.2228 13.3848 14.3451 15.6932C13.0739 15.8653 11.8201 16.2905 10.6917 17.0702C6.962 19.6468 5.978 24.6696 8.3443 28.4781C5.13283 31.4185 4.39243 36.3146 6.83258 40.0968C8.27997 42.3394 10.5535 43.6903 12.9952 44.0915C13.0405 45.9216 13.5896 47.7596 14.7085 49.3779C17.7684 53.8051 23.8398 54.914 28.2678 51.8552C28.4368 51.7378 28.5677 51.5895 28.7272 51.4642C31.1951 53.6662 34.9003 54.0295 37.742 52.0663C39.2584 51.0191 40.2281 49.4952 40.651 47.8398C42.8745 47.9215 45.1386 47.3567 47.1097 45.9947C51.8385 42.7281 53.1073 36.3407 50.0823 31.5217C52.5105 29.4743 53.0336 25.8936 51.1679 23.2506C50.3362 22.0709 49.1593 21.2967 47.8754 20.9144ZM53.2192 19.3953C54.1793 18.7321 54.4198 17.4169 53.7563 16.4571C53.0929 15.4973 51.7773 15.2569 50.8171 15.9201C49.8568 16.5832 49.6164 17.8984 50.2798 18.8583C50.9433 19.8181 52.259 20.0585 53.2192 19.3953ZM57.3092 31.7525C57.1258 30.9038 56.2894 30.3652 55.4411 30.5475C54.5929 30.7307 54.0532 31.5669 54.2365 32.4149C54.4191 33.2636 55.2554 33.8022 56.1045 33.6198C56.9527 33.4367 57.4925 32.6006 57.3092 31.7525ZM59.9731 24.1778C59.8365 23.5472 59.2152 23.1458 58.5844 23.2823C57.9526 23.4187 57.5518 24.0398 57.6875 24.6712C57.824 25.3019 58.4463 25.7025 59.0771 25.5668C59.708 25.4303 60.1095 24.8085 59.9731 24.1778Z" fill="#5D5FEF"/>
<path d="M42.2102 39.7779C41.8492 37.4727 37.5799 39.2504 37.3163 36.7248C36.9434 33.1409 42.2736 25.417 41.853 22.4185C41.4753 19.719 39.6557 19.1535 38.0726 19.1257C36.5347 19.0979 36.1284 19.3431 35.6086 19.6453C35.3086 19.819 34.8778 20.1633 34.2795 19.5945C33.8819 19.2161 33.6193 18.9512 33.1988 18.6157C32.9845 18.4443 32.6433 18.2285 32.0719 18.1444C31.4998 18.0603 30.7594 18.1444 30.2889 18.3459C29.8175 18.5482 29.4477 18.9012 29.0604 19.2375C28.6739 19.5739 27.6923 20.6726 26.7774 20.2671C26.3807 20.0919 25.0371 19.4208 24.0674 19.0011C22.1955 18.1912 19.4958 19.5033 18.5238 21.231C17.0772 23.8011 14.2212 33.8992 13.7887 35.2311C12.819 38.2217 15.0179 40.6595 17.9833 40.519C19.2372 40.4594 20.0712 40.0017 20.8632 38.5619C21.321 37.7306 25.6204 26.5037 25.9402 25.9651C26.1719 25.5748 26.9456 25.0592 27.6019 25.3956C28.2574 25.7319 28.3883 26.4331 28.2915 27.0939C28.1343 28.1624 25.1022 35.0113 24.9856 35.7864C24.788 37.1039 25.4141 37.837 26.7822 37.9082C27.7201 37.9583 28.6541 37.6212 29.3961 36.2226C29.8111 35.4404 34.593 25.8666 35.0159 25.2273C35.481 24.526 35.8548 24.2953 36.3286 24.3198C36.6958 24.3381 37.284 24.4324 37.1372 25.5335C36.9928 26.6131 33.1481 33.6382 32.7449 35.3586C32.2054 37.6583 33.4679 39.9874 35.5477 41.0067C36.8746 41.6564 42.6785 42.7701 42.2102 39.7779Z" fill="white"/>
</g>
<defs>
<clipPath id="clip0">
<rect width="60" height="57.2307" fill="white" transform="translate(0 0.384521)"/>
</clipPath>
</defs>
</svg>
