<svg width="60" height="60" viewBox="0 0 60 60" fill="none" xmlns="http://www.w3.org/2000/svg">
<path d="M36.6025 55.06C33.7011 55.0504 31.3539 52.6964 31.3525 49.795V44.5275H36.6025C39.5117 44.5275 41.87 46.8859 41.87 49.795C41.87 52.7042 39.5117 55.0625 36.6025 55.0625V55.06ZM23.3975 55.06C20.4962 55.0504 18.1489 52.6964 18.1475 49.795V36.61C18.1475 34.7312 19.1498 32.9952 20.7769 32.0558C22.4039 31.1164 24.4086 31.1164 26.0356 32.0558C27.6627 32.9952 28.665 34.7312 28.665 36.61V49.795C28.6636 52.7032 26.3057 55.06 23.3975 55.06ZM49.7725 41.8775H36.6025C33.694 41.8775 31.3362 39.5197 31.3362 36.6113C31.3362 33.7028 33.694 31.345 36.6025 31.345H49.7725C52.681 31.345 55.0387 33.7028 55.0387 36.6113C55.0387 39.5197 52.681 41.8775 49.7725 41.8775ZM10.23 41.8775C7.32153 41.8775 4.96375 39.5197 4.96375 36.6113C4.96375 33.7028 7.32153 31.345 10.23 31.345H15.48V36.61C15.48 39.5172 13.1247 41.8748 10.2175 41.8775H10.23ZM49.7725 28.655H44.5225V23.39C44.5308 20.4925 46.8849 18.1495 49.7825 18.155C52.68 18.1605 55.0252 20.5125 55.0225 23.41C55.0197 26.3075 52.67 28.655 49.7725 28.655ZM36.6025 28.655C33.7011 28.6454 31.3539 26.2914 31.3525 23.39V10.205C31.3525 8.32625 32.3548 6.59019 33.9819 5.65081C35.6089 4.71142 37.6136 4.71142 39.2406 5.65081C40.8677 6.59019 41.87 8.32625 41.87 10.205V23.39C41.8686 26.2982 39.5107 28.655 36.6025 28.655ZM23.3975 28.655H10.23C7.32153 28.655 4.96375 26.2972 4.96375 23.3888C4.96375 20.4803 7.32153 18.1225 10.23 18.1225H23.3975C26.306 18.1225 28.6637 20.4803 28.6637 23.3888C28.6637 26.2972 26.306 28.655 23.3975 28.655ZM28.6475 15.4725H23.3975C21.2669 15.4786 19.3426 14.1999 18.5228 12.2333C17.703 10.2667 18.1493 7.99991 19.6534 6.49082C21.1575 4.98173 23.4228 4.52791 25.3921 5.34116C27.3614 6.1544 28.6465 8.07439 28.6475 10.205V15.47V15.4725Z" fill="#5D5FEF"/>
</svg>
