<svg width="125" height="111" viewBox="0 0 125 111" fill="none" xmlns="http://www.w3.org/2000/svg">
<path d="M13.1 96H0.600006V29.8H13.1V96Z" fill="white"/>
<path d="M26.4 63.6L17.6 72.1V72.2L41.5 95H41.6L50.4 86.5V86.4L26.5 63.6C26.5 63.6 26.4 63.6 26.4 63.6Z" fill="white"/>
<path d="M26.4 61.1L17.6 52.6V52.5L41.5 29.7H41.6L50.4 38.2V38.3L26.5 61.1H26.4Z" fill="white"/>
<path d="M94.6 110.9H82.7C82.7 110.9 82.6 110.9 82.6 110.8V98.4C82.6 98.4 82.6 98.3 82.7 98.3H94.9C103.4 98.3 110.8 91.9 111.3 83.5C111.9 74.3 104.6 66.6 95.5 66.6H82.7C82.7 66.6 82.6 66.6 82.6 66.5V54.1C82.6 54.1 82.6 54 82.7 54H95.5C111.6 54 124.6 67.5 123.8 83.7C123.1 99.1 109.9 110.9 94.6 110.9Z" fill="white"/>
<path d="M56.6 110.9H44.7C44.7 110.9 44.6 110.9 44.6 110.8V98.4C44.6 98.4 44.6 98.3 44.7 98.3H56.9C65.4 98.3 72.8 91.9 73.3 83.5C73.9 74.3 66.6 66.6 57.5 66.6H44.7C44.7 66.6 44.6 66.6 44.6 66.5V54.1C44.6 54.1 44.6 54 44.7 54H57.5C73.6 54 86.6 67.5 85.8 83.7C85.1 99.1 71.9 110.9 56.6 110.9Z" fill="white"/>
<path d="M0 0.200012H2.3L5.3 8.60001L8.4 0.200012H10.5L6.1 11.4H4.4L0 0.200012Z" fill="white"/>
<path d="M17.7 0.200012H19.4L24.2 11.4H21.9L20.9 8.80001H16.1L15.1 11.4H12.9L17.7 0.200012ZM20.3 7.10001L18.6 2.60001L16.8 7.10001H20.3Z" fill="white"/>
<path d="M28.7 0.200012H31.3L36.7 8.50001V0.200012H38.7V11.4H36.2L30.7 2.80001V11.4H28.7V0.200012Z" fill="white"/>
<path d="M52.1 2.80001C51.7 2.40001 51.3 2.10001 50.9 1.90001C50.5 1.80001 50.1 1.70001 49.7 1.70001C49.1 1.70001 48.6 1.80001 48.1 2.00001C47.6 2.20001 47.2 2.50001 46.9 2.90001C46.6 3.30001 46.3 3.70001 46.1 4.20001C45.9 4.70001 45.8 5.20001 45.8 5.80001C45.8 6.40001 45.9 7.00001 46.1 7.50001C46.3 8.00001 46.5 8.40001 46.9 8.80001C47.2 9.20001 47.6 9.50001 48.1 9.70001C48.6 9.90001 49.1 10 49.7 10C50.2 10 50.6 9.90001 51 9.70001C51.4 9.50001 51.8 9.10001 52.2 8.70001L53.8 9.90001C53.3 10.6 52.7 11.1 52 11.4C51.3 11.7 50.5 11.9 49.7 11.9C48.8 11.9 48 11.8 47.3 11.5C46.6 11.2 46 10.8 45.4 10.3C44.9 9.80001 44.5 9.20001 44.2 8.50001C43.9 7.80001 43.8 7.00001 43.8 6.10001C43.8 5.20001 43.9 4.40001 44.2 3.70001C44.5 3.00001 44.9 2.30001 45.4 1.80001C45.9 1.30001 46.5 0.90001 47.3 0.60001C48 0.30001 48.8 0.200012 49.7 0.200012C50.5 0.200012 51.2 0.30001 51.8 0.60001C52.4 0.90001 53 1.30001 53.6 2.00001L52.1 2.80001Z" fill="white"/>
<path d="M57.8 5.9C57.8 5 57.9 4.2 58.2 3.5C58.5 2.8 58.9 2.1 59.4 1.6C59.9 1.1 60.5 0.700002 61.3 0.400002C62 0.100002 62.8 0 63.7 0C64.6 0 65.4 0.100002 66.1 0.400002C66.8 0.700002 67.5 1.1 68 1.6C68.5 2.1 68.9 2.7 69.2 3.5C69.5 4.2 69.6 5 69.6 5.9C69.6 6.8 69.5 7.6 69.2 8.3C68.9 9 68.5 9.6 68 10.1C67.5 10.6 66.8 11 66.1 11.3C65.4 11.6 64.6 11.7 63.7 11.7C62.8 11.7 62 11.6 61.3 11.3C60.6 11 60 10.6 59.4 10.1C58.9 9.6 58.5 9 58.2 8.3C57.9 7.5 57.8 6.7 57.8 5.9ZM59.9 5.7C59.9 6.3 60 6.9 60.2 7.4C60.4 7.9 60.6 8.3 61 8.7C61.3 9.1 61.7 9.4 62.2 9.6C62.7 9.8 63.2 9.9 63.8 9.9C64.4 9.9 64.9 9.8 65.4 9.6C65.9 9.4 66.3 9.1 66.6 8.7C66.9 8.3 67.2 7.9 67.4 7.4C67.6 6.9 67.7 6.3 67.7 5.7C67.7 5.1 67.6 4.6 67.4 4.1C67.2 3.6 67 3.2 66.6 2.8C66.2 2.4 65.9 2.2 65.4 1.9C64.9 1.6 64.4 1.6 63.8 1.6C63.2 1.6 62.7 1.7 62.2 1.9C61.7 2.1 61.3 2.4 61 2.8C60.7 3.2 60.4 3.6 60.2 4.1C60 4.7 59.9 5.2 59.9 5.7Z" fill="white"/>
<path d="M83.6 7.30001C83.6 8.00001 83.5 8.60001 83.3 9.10001C83.1 9.60001 82.8 10.1 82.4 10.5C82 10.9 81.5 11.2 81 11.4C80.5 11.6 79.9 11.7 79.2 11.7C78.5 11.7 78 11.6 77.4 11.4C76.9 11.2 76.4 10.9 76 10.5C75.6 10.1 75.3 9.70001 75.1 9.10001C74.9 8.60001 74.8 8.00001 74.8 7.30001V0.200012H76.8V7.20001C76.8 7.50001 76.8 7.80001 76.9 8.10001C77 8.40001 77.1 8.70001 77.3 8.90001C77.5 9.20001 77.8 9.40001 78.1 9.50001C78.4 9.70001 78.8 9.70001 79.3 9.70001C79.8 9.70001 80.2 9.60001 80.5 9.50001C80.8 9.30001 81.1 9.10001 81.3 8.90001C81.5 8.60001 81.6 8.40001 81.7 8.10001C81.8 7.80001 81.8 7.50001 81.8 7.20001V0.200012H83.8V7.30001H83.6Z" fill="white"/>
<path d="M88 0.200012H90.3L93.3 8.60001L96.4 0.200012H98.5L94.1 11.4H92.4L88 0.200012Z" fill="white"/>
<path d="M102.9 0.200012H110.3V2.00001H104.9V4.70001H110V6.50001H104.9V9.50001H110.6V11.3H102.9V0.200012Z" fill="white"/>
<path d="M115.7 0.200012H119.6C120.1 0.200012 120.7 0.200011 121.2 0.300011C121.7 0.400011 122.1 0.600011 122.5 0.800011C122.9 1.00001 123.2 1.40001 123.4 1.80001C123.6 2.20001 123.7 2.70001 123.7 3.40001C123.7 4.20001 123.5 4.90001 123 5.40001C122.6 5.90001 121.9 6.30001 121.1 6.40001L124.1 11.3H121.7L119.1 6.60001H117.6V11.3H115.6V0.200012H115.7ZM119.3 5.00001C119.6 5.00001 119.9 5.00001 120.2 5.00001C120.5 5.00001 120.7 4.90001 121 4.80001C121.2 4.70001 121.4 4.50001 121.6 4.30001C121.8 4.10001 121.8 3.80001 121.8 3.40001C121.8 3.10001 121.7 2.80001 121.6 2.60001C121.5 2.40001 121.3 2.30001 121.1 2.20001C120.9 2.10001 120.6 2.00001 120.4 2.00001C120.1 2.00001 119.9 2.00001 119.6 2.00001H117.9V5.00001H119.3Z" fill="white"/>
</svg>
