<svg width="125" height="111" viewBox="0 0 125 111" fill="none" xmlns="http://www.w3.org/2000/svg">
<path d="M13.1001 95.9999H0.600098V29.7999H13.1001V95.9999Z" fill="#231F20"/>
<path d="M26.4001 63.6L17.6001 72.1V72.2L41.5001 95H41.6001L50.4001 86.5V86.4L26.5001 63.6C26.5001 63.6 26.4001 63.6 26.4001 63.6Z" fill="#231F20"/>
<path d="M26.4001 61.1L17.6001 52.6V52.5L41.5001 29.7H41.6001L50.4001 38.2V38.3L26.5001 61.1H26.4001Z" fill="#231F20"/>
<path d="M94.6001 110.9H82.7001C82.7001 110.9 82.6001 110.9 82.6001 110.8V98.4C82.6001 98.4 82.6001 98.3 82.7001 98.3H94.9001C103.4 98.3 110.8 91.9 111.3 83.5C111.9 74.3 104.6 66.6 95.5001 66.6H82.7001C82.7001 66.6 82.6001 66.6 82.6001 66.5V54.1C82.6001 54.1 82.6001 54 82.7001 54H95.5001C111.6 54 124.6 67.5 123.8 83.7C123.1 99.1 109.9 110.9 94.6001 110.9Z" fill="#405DA9"/>
<path d="M56.6001 110.9H44.7001C44.7001 110.9 44.6001 110.9 44.6001 110.8V98.4C44.6001 98.4 44.6001 98.3 44.7001 98.3H56.9001C65.4001 98.3 72.8001 91.9 73.3001 83.5C73.9001 74.3 66.6001 66.6 57.5001 66.6H44.7001C44.7001 66.6 44.6001 66.6 44.6001 66.5V54.1C44.6001 54.1 44.6001 54 44.7001 54H57.5001C73.6001 54 86.6001 67.5 85.8001 83.7C85.1001 99.1 71.9001 110.9 56.6001 110.9Z" fill="#ED2757"/>
<path d="M0 0.199951H2.3L5.3 8.59995L8.4 0.199951H10.5L6.1 11.4H4.4L0 0.199951Z" fill="#0E0E2C"/>
<path d="M17.6999 0.199951H19.3999L24.1999 11.4H21.8999L20.8999 8.79995H16.0999L15.0999 11.4H12.8999L17.6999 0.199951ZM20.2999 7.09995L18.5999 2.59995L16.7999 7.09995H20.2999Z" fill="#0E0E2C"/>
<path d="M28.7002 0.199951H31.3002L36.7002 8.49995V0.199951H38.7002V11.4H36.2002L30.7002 2.79995V11.4H28.7002V0.199951Z" fill="#0E0E2C"/>
<path d="M52.0998 2.79995C51.6998 2.39995 51.2998 2.09995 50.8998 1.89995C50.4998 1.79995 50.0998 1.69995 49.6998 1.69995C49.0998 1.69995 48.5998 1.79995 48.0998 1.99995C47.5998 2.19995 47.1998 2.49995 46.8998 2.89995C46.5998 3.29995 46.2998 3.69995 46.0998 4.19995C45.8998 4.69995 45.7998 5.19995 45.7998 5.79995C45.7998 6.39995 45.8998 6.99995 46.0998 7.49995C46.2998 7.99995 46.4998 8.39995 46.8998 8.79995C47.1998 9.19995 47.5998 9.49995 48.0998 9.69995C48.5998 9.89995 49.0998 9.99995 49.6998 9.99995C50.1998 9.99995 50.5998 9.89995 50.9998 9.69995C51.3998 9.49995 51.7998 9.09995 52.1998 8.69995L53.7998 9.89995C53.2998 10.6 52.6998 11.1 51.9998 11.4C51.2998 11.7 50.4998 11.9 49.6998 11.9C48.7998 11.9 47.9998 11.8 47.2998 11.5C46.5998 11.2 45.9998 10.7999 45.3998 10.2999C44.8998 9.79995 44.4998 9.19995 44.1998 8.49995C43.8998 7.79995 43.7998 6.99995 43.7998 6.09995C43.7998 5.19995 43.8998 4.39995 44.1998 3.69995C44.4998 2.99995 44.8998 2.29995 45.3998 1.79995C45.8998 1.29995 46.4998 0.899949 47.2998 0.599949C47.9998 0.299949 48.7998 0.199951 49.6998 0.199951C50.4998 0.199951 51.1998 0.299949 51.7998 0.599949C52.3998 0.899949 52.9998 1.29995 53.5998 1.99995L52.0998 2.79995Z" fill="#0E0E2C"/>
<path d="M57.7998 5.9C57.7998 5 57.8998 4.2 58.1998 3.5C58.4998 2.8 58.8998 2.1 59.3998 1.6C59.8998 1.1 60.4998 0.700002 61.2998 0.400002C61.9998 0.100002 62.7998 0 63.6998 0C64.5998 0 65.3998 0.100002 66.0998 0.400002C66.7998 0.700002 67.4998 1.1 67.9998 1.6C68.4998 2.1 68.8998 2.7 69.1998 3.5C69.4998 4.2 69.5998 5 69.5998 5.9C69.5998 6.8 69.4998 7.6 69.1998 8.3C68.8998 9 68.4998 9.6 67.9998 10.1C67.4998 10.6 66.7998 11 66.0998 11.3C65.3998 11.6 64.5998 11.7 63.6998 11.7C62.7998 11.7 61.9998 11.6 61.2998 11.3C60.5998 11 59.9998 10.6 59.3998 10.1C58.8998 9.6 58.4998 9 58.1998 8.3C57.8998 7.5 57.7998 6.7 57.7998 5.9ZM59.8998 5.7C59.8998 6.3 59.9998 6.9 60.1998 7.4C60.3998 7.9 60.5998 8.3 60.9998 8.7C61.2998 9.1 61.6998 9.4 62.1998 9.6C62.6998 9.8 63.1998 9.9 63.7998 9.9C64.3998 9.9 64.8998 9.8 65.3998 9.6C65.8998 9.4 66.2998 9.1 66.5998 8.7C66.8998 8.3 67.1998 7.9 67.3998 7.4C67.5998 6.9 67.6998 6.3 67.6998 5.7C67.6998 5.1 67.5998 4.6 67.3998 4.1C67.1998 3.6 66.9998 3.2 66.5998 2.8C66.1998 2.4 65.8998 2.2 65.3998 1.9C64.8998 1.6 64.3998 1.6 63.7998 1.6C63.1998 1.6 62.6998 1.7 62.1998 1.9C61.6998 2.1 61.2998 2.4 60.9998 2.8C60.6998 3.2 60.3998 3.6 60.1998 4.1C59.9998 4.7 59.8998 5.2 59.8998 5.7Z" fill="#0E0E2C"/>
<path d="M83.5998 7.29995C83.5998 7.99995 83.4998 8.59995 83.2998 9.09995C83.0998 9.59995 82.7998 10.1 82.3998 10.5C81.9998 10.9 81.4998 11.2 80.9998 11.4C80.4998 11.6 79.8998 11.7 79.1998 11.7C78.4998 11.7 77.9998 11.6 77.3998 11.4C76.8998 11.2 76.3998 10.9 75.9998 10.5C75.5998 10.1 75.2998 9.69995 75.0998 9.09995C74.8998 8.59995 74.7998 7.99995 74.7998 7.29995V0.199951H76.7998V7.19995C76.7998 7.49995 76.7998 7.79995 76.8998 8.09995C76.9998 8.39995 77.0998 8.69995 77.2998 8.89995C77.4998 9.19995 77.7998 9.39995 78.0998 9.49995C78.3998 9.69995 78.7998 9.69995 79.2998 9.69995C79.7998 9.69995 80.1998 9.59995 80.4998 9.49995C80.7998 9.29995 81.0998 9.09995 81.2998 8.89995C81.4998 8.59995 81.5998 8.39995 81.6998 8.09995C81.7998 7.79995 81.7998 7.49995 81.7998 7.19995V0.199951H83.7998V7.29995H83.5998Z" fill="#0E0E2C"/>
<path d="M88 0.199951H90.3L93.3 8.59995L96.4 0.199951H98.5L94.1 11.4H92.4L88 0.199951Z" fill="#0E0E2C"/>
<path d="M102.9 0.199951H110.3V1.99995H104.9V4.69995H110V6.49995H104.9V9.49995H110.6V11.2999H102.9V0.199951Z" fill="#0E0E2C"/>
<path d="M115.7 0.199951H119.6C120.1 0.199951 120.7 0.19995 121.2 0.29995C121.7 0.39995 122.1 0.59995 122.5 0.79995C122.9 0.99995 123.2 1.39995 123.4 1.79995C123.6 2.19995 123.7 2.69995 123.7 3.39995C123.7 4.19995 123.5 4.89995 123 5.39995C122.6 5.89995 121.9 6.29995 121.1 6.39995L124.1 11.2999H121.7L119.1 6.59995H117.6V11.2999H115.6V0.199951H115.7ZM119.3 4.99995C119.6 4.99995 119.9 4.99995 120.2 4.99995C120.5 4.99995 120.7 4.89995 121 4.79995C121.2 4.69995 121.4 4.49995 121.6 4.29995C121.8 4.09995 121.8 3.79995 121.8 3.39995C121.8 3.09995 121.7 2.79995 121.6 2.59995C121.5 2.39995 121.3 2.29995 121.1 2.19995C120.9 2.09995 120.6 1.99995 120.4 1.99995C120.1 1.99995 119.9 1.99995 119.6 1.99995H117.9V4.99995H119.3Z" fill="#0E0E2C"/>
</svg>
