<svg xmlns="http://www.w3.org/2000/svg" viewBox="0 0 185.1 158.97"><defs><style>.cls-1{fill:#fff;}</style></defs><g id="레이어_2" data-name="레이어 2"><g id="레이어_1-2" data-name="레이어 1"><path class="cls-1" d="M13.73,81.1a12.79,12.79,0,0,1,8-11.42c4-1.42,7.49.31,7.24,6L28.1,95.52,46.88,64.38c3.12-5.19,8-7.36,11-6.13,3.35,1.35,4.09,6.69,1,11.53l-15,23.27L63.25,123.6l-17.48,6.22L33.45,109.15,27.08,119l-.76,17.77-15.23,5.41Z"/><path class="cls-1" d="M92.17,45c13-4.64,26.42-1.59,25.38,22.39l-.24,5.6c-1,24-15.09,36.79-28.13,41.43l-11.23,4c-9,3.22-11.6.47-11.17-9.44L68.6,66.76c.42-9.92,3.3-14.6,12.34-17.82Zm10.07,26.48c.43-10.09-4.08-13.92-11.16-11.4l-5,1.77c-1.73.62-2.2,1.21-2.29,3.28L82.32,99.66c-.09,2.07.34,2.34,2.08,1.72l5-1.77c7.08-2.52,12.07-9.73,12.51-19.82Z"/><path class="cls-1" d="M148.92,24.76c13-4.64,26.42-1.59,25.39,22.38l-.25,5.61c-1,24-15.09,36.79-28.13,41.43l-11.23,4c-9,3.22-11.6.48-11.17-9.44l1.82-42.17c.43-9.92,3.3-14.59,12.34-17.81ZM159,51.24c.43-10.09-4.08-13.92-11.16-11.4l-5,1.77c-1.74.61-2.21,1.21-2.3,3.28l-1.49,34.58c-.09,2.07.34,2.34,2.08,1.72l5-1.77c7.09-2.52,12.07-9.73,12.51-19.82Z"/><path class="cls-1" d="M5.16,159A3.5,3.5,0,0,1,4,152.17l106.54-37.9a3.5,3.5,0,1,1,2.34,6.59L6.34,158.77A3.48,3.48,0,0,1,5.16,159Z"/><path class="cls-1" d="M137.19,112a3.5,3.5,0,0,1-1.17-6.8l44.41-15.8a3.5,3.5,0,0,1,2.35,6.6l-44.42,15.79A3.4,3.4,0,0,1,137.19,112Z"/><path class="cls-1" d="M121.33,118.06a3.5,3.5,0,0,1-1.19-6.79L126.5,109a3.5,3.5,0,1,1,2.39,6.58l-6.36,2.31A3.61,3.61,0,0,1,121.33,118.06Z"/><path class="cls-1" d="M73.24,45.59a3.5,3.5,0,0,1-1.19-6.79L178.34.21a3.5,3.5,0,0,1,2.38,6.58L74.44,45.38A3.37,3.37,0,0,1,73.24,45.59Z"/><path class="cls-1" d="M3.5,70.91a3.5,3.5,0,0,1-1.19-6.79L46.61,48A3.5,3.5,0,1,1,49,54.62L4.7,70.7A3.61,3.61,0,0,1,3.5,70.91Z"/><path class="cls-1" d="M57.28,51a3.5,3.5,0,0,1-1.22-6.78l6.35-2.35a3.5,3.5,0,1,1,2.43,6.56l-6.35,2.35A3.44,3.44,0,0,1,57.28,51Z"/></g></g></svg>