<svg xmlns="http://www.w3.org/2000/svg" viewBox="0 0 156.59 245.89"><g id="레이어_2" data-name="레이어 2"><g id="레이어_1-2" data-name="레이어 1"><path d="M27.44,105.34l-14.7,5.23c-4.52,1.61-6.17-1.46-6-5a10.4,10.4,0,0,1,6.64-9.5l14.93-5.31.48-11.21c.05-1.21-.58-1.91-1.79-1.49L14.47,82.53c-4.52,1.6-6.18-1.46-6-5A10.38,10.38,0,0,1,15.09,68l16.58-5.9c8.52-3,11.11-1.07,10.73,7.73l-.73,16.9,4.6-1.63,1.06-24.58a10.65,10.65,0,0,1,6.8-9.64c3.39-1.2,6.59.2,6.39,4.95l-3.18,73.64-13.19,4.7,1.52-35.1-4.83,1.71C38.36,124,25.76,137.27,12.39,142.7c-4,1.6-7.6.84-7.48-3.79A10.45,10.45,0,0,1,11,129.29C20.67,124.65,25.83,116.69,27.44,105.34ZM64.13,54.58a11,11,0,0,1,7-9.72c3.39-1.2,6.6.2,6.39,5l-3.17,73.64L61,128.23Z"/><path d="M84.41,64.52c.66-15.18,9.83-26.51,22.42-31S128,34,127.3,49.26L126,80.48c-.66,15.26-9.9,26.53-22.41,31S82.41,111,83.07,95.74ZM98,90.77c-.25,5.87,2.41,7.8,6.11,6.49S110.76,92,111,86.13l1.38-31.91c.25-5.77-2.48-7.86-6.18-6.46s-6.61,5.41-6.86,11.1Zm35.5,11.66L136.59,30a12.43,12.43,0,0,1,7.91-11.22c4-1.42,7.41.25,7.16,5.86l-3.12,72.44Z"/><path d="M15.09,224.77c-9.8,3.49-11.5,1.46-11-9.32l2.06-47.69c.46-10.78,2.38-14,12.18-17.5l24.19-8.61c4.38-1.55,5.64,1.9,5.5,5.18s-1.83,7.87-6.12,9.4l-18.7,6.65c-1.35.48-2,1.21-2.06,3.19l-1.75,40.54c-.09,2,.49,2.28,1.85,1.8l23.44-8.34c4.37-1.56,5.48,2,5.34,5.23s-1.66,7.64-6,9.17Zm39.34-10.6,3.13-72.44a12.44,12.44,0,0,1,7.9-11.22c4-1.42,7.41.25,7.17,5.85L69.51,208.8Z"/><path d="M90.46,198c-9.8,3.49-11.49,1.46-11-9.32l2.06-47.69c.46-10.78,2.38-14,12.18-17.5l24.2-8.61c4.37-1.55,5.63,1.91,5.49,5.18s-1.83,7.87-6.12,9.4l-18.7,6.65c-1.35.48-2,1.21-2.06,3.2l-1.75,40.53c-.09,2,.49,2.29,1.85,1.8L120,173.25c4.37-1.55,5.48,2,5.34,5.24s-1.66,7.64-6,9.16Zm39.34-10.6,3.13-72.44a12.44,12.44,0,0,1,7.9-11.22c4-1.42,7.41.25,7.17,5.86L144.88,182Z"/><path d="M3.5,245.89a3.5,3.5,0,0,1-1.17-6.8L90.6,207.68a3.5,3.5,0,0,1,2.34,6.6L4.67,245.68A3.4,3.4,0,0,1,3.5,245.89Z"/><path d="M113.79,206.79a3.5,3.5,0,0,1-1.17-6.8l36.79-13.09a3.5,3.5,0,1,1,2.35,6.59L115,206.59A3.48,3.48,0,0,1,113.79,206.79Z"/><path d="M100.23,211.65a3.5,3.5,0,0,1-1.18-6.8l5.3-1.9a3.5,3.5,0,0,1,2.36,6.59l-5.3,1.9A3.5,3.5,0,0,1,100.23,211.65Z"/><path d="M64.89,38.59a3.5,3.5,0,0,1-1.18-6.79L151.91.21a3.5,3.5,0,1,1,2.36,6.59L66.07,38.39A3.48,3.48,0,0,1,64.89,38.59Z"/><path d="M6.12,59.5a3.5,3.5,0,0,1-1.18-6.79L41.7,39.53a3.5,3.5,0,1,1,2.36,6.59L7.3,59.3A3.48,3.48,0,0,1,6.12,59.5Z"/><path d="M51.14,43.36A3.5,3.5,0,0,1,50,36.56l5.29-1.91a3.5,3.5,0,0,1,2.38,6.59l-5.3,1.91A3.51,3.51,0,0,1,51.14,43.36Z"/></g></g></svg>