<svg xmlns="http://www.w3.org/2000/svg" viewBox="0 0 320.78 220.04"><defs><style>.cls-1{fill:#fff;}</style></defs><g id="레이어_2" data-name="레이어 2"><g id="레이어_1-2" data-name="레이어 1"><path class="cls-1" d="M32.68,160.68,18,165.91c-4.53,1.61-6.18-1.45-6-5a10.39,10.39,0,0,1,6.65-9.49l14.92-5.31L34,134.91c0-1.21-.59-1.92-1.79-1.49l-12.52,4.45c-4.52,1.61-6.17-1.45-6-5a10.41,10.41,0,0,1,6.65-9.5l16.58-5.9c8.52-3,11.1-1.06,10.72,7.74l-.72,16.9,4.59-1.64,1.06-24.58a10.63,10.63,0,0,1,6.8-9.63c3.39-1.21,6.6.2,6.39,4.94l-3.17,73.65L49.4,189.55l1.51-35.1-4.82,1.72C43.6,179.39,31,192.61,17.64,198.05c-4,1.59-7.61.84-7.48-3.79a10.47,10.47,0,0,1,6.05-9.63C25.91,180,31.08,172,32.68,160.68Zm36.7-50.76a10.94,10.94,0,0,1,7-9.71c3.39-1.21,6.59.2,6.39,4.94L79.62,178.8l-13.41,4.77Z"/><path class="cls-1" d="M89.66,119.86c.65-15.18,9.82-26.51,22.41-31s21.13.46,20.48,15.72l-1.35,31.22c-.66,15.27-9.9,26.54-22.41,31s-21.14-.46-20.48-15.73Zm13.56,26.26c-.25,5.86,2.41,7.8,6.1,6.49s6.69-5.27,6.94-11.13l1.38-31.91c.24-5.78-2.48-7.86-6.18-6.46s-6.62,5.41-6.86,11.1Zm35.49,11.65,3.13-72.44a12.44,12.44,0,0,1,7.9-11.21c4-1.43,7.41.25,7.17,5.85l-3.12,72.44Z"/><path class="cls-1" d="M174.74,141.56c-9.8,3.49-11.49,1.46-11-9.32l2.06-47.69c.46-10.78,2.38-14,12.18-17.5l24.2-8.61c4.37-1.55,5.63,1.9,5.49,5.18s-1.83,7.87-6.12,9.4l-18.7,6.65c-1.35.48-2,1.21-2.06,3.2L179,123.4c-.09,2,.49,2.28,1.85,1.8l23.44-8.34c4.37-1.56,5.48,2,5.34,5.23s-1.66,7.64-6,9.17ZM214.08,131l3.13-72.44a12.44,12.44,0,0,1,7.9-11.22c4-1.42,7.41.25,7.17,5.85l-3.12,72.44Z"/><path class="cls-1" d="M250.11,114.74c-9.8,3.49-11.49,1.46-11-9.32l2.06-47.69c.46-10.78,2.38-14,12.18-17.5l24.2-8.6c4.37-1.56,5.63,1.9,5.49,5.17s-1.83,7.87-6.12,9.4l-18.7,6.65c-1.35.48-2,1.21-2.06,3.2l-1.75,40.53c-.09,2,.49,2.29,1.85,1.8L279.67,90c4.37-1.55,5.48,2,5.34,5.24s-1.66,7.64-6,9.17Zm39.34-10.6,3.13-72.44a12.44,12.44,0,0,1,7.9-11.22c4-1.42,7.41.25,7.17,5.86l-3.12,72.44Z"/><path class="cls-1" d="M7.55,220a3.5,3.5,0,0,1-1.17-6.8l187-66.54a3.5,3.5,0,0,1,2.35,6.6l-187,66.54A3.64,3.64,0,0,1,7.55,220Z"/><path class="cls-1" d="M239.32,137.58a3.5,3.5,0,0,1-1.17-6.8l78-27.72a3.5,3.5,0,1,1,2.34,6.6l-78,27.72A3.69,3.69,0,0,1,239.32,137.58Z"/><path class="cls-1" d="M204.46,150a3.5,3.5,0,0,1-1.17-6.8l24.26-8.61a3.5,3.5,0,1,1,2.34,6.6l-24.26,8.61A3.43,3.43,0,0,1,204.46,150Z"/><path class="cls-1" d="M126.26,73.37a3.5,3.5,0,0,1-1.17-6.8L312.16.2a3.5,3.5,0,0,1,2.34,6.6L127.43,73.17A3.43,3.43,0,0,1,126.26,73.37Z"/><path class="cls-1" d="M3.5,116.9a3.5,3.5,0,0,1-1.17-6.8l78-27.64a3.5,3.5,0,1,1,2.34,6.59l-78,27.65A3.43,3.43,0,0,1,3.5,116.9Z"/><path class="cls-1" d="M92.09,85.47a3.5,3.5,0,0,1-1.17-6.8l24.27-8.59a3.5,3.5,0,0,1,2.34,6.6L93.26,85.27A3.43,3.43,0,0,1,92.09,85.47Z"/></g></g></svg>