<svg width="60" height="60" viewBox="0 0 60 60" fill="none" xmlns="http://www.w3.org/2000/svg">
<path d="M30 60C13.4315 60 0 46.5685 0 30C0 13.4315 13.4315 0 30 0C46.5685 0 60 13.4315 60 30C59.9818 46.561 46.561 59.9818 30 60ZM15.36 49.635L15.345 49.665C22.1942 54.796 31.2279 55.9714 39.162 52.764C38.0248 46.6479 36.339 40.6466 34.125 34.833C29.0398 36.606 24.3906 39.4419 20.487 43.152C18.5632 44.9735 16.8977 47.0498 15.537 49.323L15.516 49.356V49.326L15.462 49.431L15.426 49.491L15.405 49.53L15.354 49.638L15.36 49.635ZM44.337 33.135C42.86 33.1371 41.3847 33.2373 39.921 33.435C41.8326 38.7766 43.3369 44.2552 44.421 49.824C49.5193 46.1489 52.9845 40.6314 54.081 34.443C50.9071 33.5673 47.6295 33.1243 44.337 33.126V33.135ZM5.451 29.865V30.033C5.45647 35.8128 7.50157 41.4052 11.226 45.825C16.0508 38.3715 23.1878 32.7068 31.542 29.7L31.899 29.598C31.368 28.425 30.87 27.378 30.372 26.4C22.3678 28.6443 14.0997 29.8096 5.787 29.865H5.451ZM43.398 28.047C47.1205 28.0607 50.8346 28.4 54.498 29.061C54.3071 23.9862 52.5321 19.0986 49.422 15.084C45.7927 19.1428 41.2754 22.309 36.222 24.336L36.309 24.3L36.216 24.339C36.753 25.458 37.224 26.505 37.617 27.438C37.71 27.66 37.788 27.852 37.86 28.038L37.983 28.338C39.781 28.1385 41.5889 28.0413 43.398 28.047ZM19.131 8.031C12.6069 11.2511 7.84855 17.2007 6.141 24.273C13.1321 24.165 20.0897 23.2816 26.886 21.639H26.925H26.97L27 21.6L27.162 21.561H27.18L27.3 21.537H27.327H27.348L27.411 21.519L27.531 21.489L27.6 21.459L27.666 21.441H27.696H27.726C23.727 14.4 19.587 8.661 19.128 8.031H19.131ZM30 5.51692C28.3578 5.51286 26.719 5.6686 25.107 5.982C28.2498 10.3368 31.1338 14.8726 33.744 19.566C38.4184 17.9012 42.5873 15.0647 45.852 11.328C41.42 7.57979 35.8044 5.52124 30 5.51692Z" fill="#ED2757"/>
</svg>
