<svg width="62" height="60" viewBox="0 0 62 60" fill="none" xmlns="http://www.w3.org/2000/svg">
<path d="M30.9977 8.16985e-07C15.9077 -0.00193749 3.04418 10.9418 0.628156 25.8372C-1.78786 40.7325 6.95704 55.1812 21.274 59.949C22.816 60.2266 23.368 59.2798 23.368 58.4657C23.368 57.7348 23.3433 55.798 23.3341 53.2229C14.7761 55.0733 12.9689 49.0966 12.9689 49.0966C12.4055 47.2368 11.1943 45.6405 9.55498 44.5971C6.77942 42.6881 9.76777 42.7313 9.76777 42.7313C11.7436 43.0022 13.4826 44.1729 14.477 45.9016C15.3187 47.432 16.7368 48.5629 18.4161 49.043C20.0955 49.5231 21.897 49.3125 23.4205 48.4582C23.5636 46.8977 24.2579 45.4393 25.3788 44.3442C18.5509 43.5701 11.3714 40.9303 11.3714 29.1403C11.3335 26.0909 12.4659 23.1429 14.5356 20.9031C13.5991 18.2487 13.7094 15.3373 14.844 12.7614C14.844 12.7614 17.4252 11.9318 23.3002 15.9101C28.3389 14.5285 33.6566 14.5285 38.6953 15.9101C44.5733 11.9287 47.1515 12.7614 47.1515 12.7614C48.2913 15.3361 48.4017 18.2495 47.4599 20.9031C49.5371 23.1427 50.6686 26.0984 50.6179 29.1526C50.6179 40.9735 43.4322 43.5701 36.5797 44.3319C38.0579 45.8432 38.816 47.9165 38.6614 50.0249C38.6614 54.1389 38.6244 57.4572 38.6244 58.4657C38.6244 59.2891 39.1733 60.2451 40.743 59.9429C55.054 55.1669 63.7896 40.7174 61.3686 25.826C58.9476 10.9346 46.0846 -0.00345148 30.9977 8.16985e-07Z" fill="#2E3A59"/>
</svg>
