<svg width="61" height="60" viewBox="0 0 61 60" fill="none" xmlns="http://www.w3.org/2000/svg">
<rect x="0.769531" width="60" height="60" rx="30" fill="#F5F5F5"/>
<path d="M43.2695 17.5H33.2695V22.5H43.2695C47.3945 22.5 50.7695 25.875 50.7695 30C50.7695 34.125 47.3945 37.5 43.2695 37.5H33.2695V42.5H43.2695C50.1695 42.5 55.7695 36.9 55.7695 30C55.7695 23.1 50.1695 17.5 43.2695 17.5ZM28.2695 37.5H18.2695C14.1445 37.5 10.7695 34.125 10.7695 30C10.7695 25.875 14.1445 22.5 18.2695 22.5H28.2695V17.5H18.2695C11.3695 17.5 5.76953 23.1 5.76953 30C5.76953 36.9 11.3695 42.5 18.2695 42.5H28.2695V37.5ZM20.7695 27.5H40.7695V32.5H20.7695V27.5Z" fill="#F52763"/>
</svg>
